<svg width="103" height="32" viewBox="0 0 103 32" fill="none" xmlns="http://www.w3.org/2000/svg">
<g id="logo_tosspayments" clip-path="url(#clip0_5001_1251)">
<g id="Group" opacity="0.5">
<path id="Vector" d="M21.4049 19.7604V24.7033H19.0039V11.4528H21.3878V12.7673C22.0183 11.8383 23.0878 11.2601 24.367 11.2601C26.7509 11.2601 28.9233 13.1704 28.9233 16.1871C28.9233 19.2038 26.7151 21.1124 24.3841 21.1124C23.1054 21.1101 22.036 20.6371 21.4049 19.7604ZM26.5053 16.1678C26.5053 14.6776 25.3489 13.5036 23.894 13.5036C22.4044 13.5036 21.265 14.6975 21.265 16.1678C21.265 17.638 22.4021 18.8314 23.894 18.8314C25.3489 18.8314 26.5053 17.6574 26.5053 16.1678Z" fill="black"/>
<path id="Vector_2" d="M50.8691 11.4528H53.2855V12.5746C53.8637 11.7524 54.775 11.2601 55.9144 11.2601C57.3358 11.2601 58.2983 11.8383 58.8066 12.8548C59.4024 11.8735 60.4713 11.2629 61.7682 11.2629C64.1697 11.2629 65.379 12.7349 65.379 15.1012V20.9174H62.8899V15.448C62.8899 14.1682 62.364 13.3796 61.1376 13.3796C60.0506 13.3796 59.3319 14.1187 59.3319 15.6055V20.9174H56.861V15.3786C56.861 14.117 56.3351 13.3808 55.1605 13.3808C54.0234 13.3808 53.3031 14.1346 53.3031 15.6595V20.9174H50.8691V11.4528Z" fill="black"/>
<path id="Vector_3" d="M71.5128 11.276C69.4939 11.276 67.8252 12.3977 67.0389 14.0437C66.7163 14.7231 66.5502 15.4662 66.5528 16.2184C66.5528 18.9701 68.5154 21.1261 71.5651 21.1261C73.5607 21.1261 74.8627 20.3386 75.8036 19.1043L73.8256 17.9621C73.3486 18.6262 72.6317 19.0423 71.6004 19.0423C70.1983 19.0423 69.1988 18.2708 68.8838 17.0439H76.3398C76.3807 16.7712 76.4014 16.4958 76.4017 16.2201V16.1302C76.4029 13.3267 74.3498 11.276 71.5128 11.276ZM68.9543 15.1495C69.3398 14.0454 70.2864 13.3267 71.5128 13.3267C72.7744 13.3267 73.6858 13.9754 74.0013 15.1495H68.9543Z" fill="black"/>
<path id="Vector_4" d="M77.6104 11.4528H80.0289V12.6468C80.6424 11.7883 81.6208 11.2623 82.7983 11.2623C85.0418 11.2623 86.4614 12.7343 86.4614 15.2058V20.9174H83.9901V15.5731C83.9901 14.2239 83.3412 13.3825 82.062 13.3825C80.9249 13.3825 80.0465 14.2239 80.0465 15.6959V20.9174H77.6104V11.4528Z" fill="black"/>
<path id="Vector_5" d="M87.104 11.4528H88.8563V9.40206L91.2402 8.00003V11.4528H93.7287V13.5911H91.2402V17.4822C91.2402 18.4812 91.6609 18.8314 92.2744 18.8314C92.607 18.8314 92.8702 18.7262 93.1505 18.4812L94.2546 20.3739C93.6412 20.8287 92.8702 21.0925 91.9935 21.0925C90.0133 21.0925 88.8563 20.1459 88.8563 17.5675V13.5877H87.104V11.4528Z" fill="black"/>
<path id="Vector_6" d="M37.2173 12.6621C36.5691 11.786 35.5349 11.2601 34.2904 11.2601C31.8718 11.2601 29.6982 13.1704 29.6982 16.1848C29.6982 19.1993 31.9241 21.1101 34.2557 21.1101C35.4826 21.1101 36.5515 20.549 37.2173 19.6205V20.9174H39.6012V11.4557H37.2173V12.6621ZM34.7287 18.8314C33.2738 18.8314 32.0998 17.6574 32.0998 16.1678C32.0998 14.6782 33.2738 13.5036 34.7287 13.5036C36.2183 13.5036 37.3577 14.6975 37.3577 16.1678C37.3577 17.638 36.2183 18.8314 34.7287 18.8314Z" fill="black"/>
<path id="Vector_7" d="M47.6696 11.4528L45.3386 17.5522L42.8847 11.4528H40.3081L44.1116 20.5143L44.1611 20.6326L42.6266 24.6476L42.6186 24.6681H45.1424L50.1934 11.4528H47.6696Z" fill="black"/>
<path id="Vector_8" d="M96.5124 17.8558C96.9354 18.6955 97.6905 19.1316 98.6894 19.1293C99.6713 19.1265 100.196 18.6523 100.195 18.0912C100.195 17.4089 99.1755 17.2525 97.9651 17.0109C96.3692 16.6823 94.597 16.1962 94.5913 14.1978C94.5873 12.6058 96.1264 11.214 98.4574 11.2254C100.31 11.2203 101.47 11.865 102.332 12.9629L100.324 14.1301C99.9362 13.5001 99.3392 13.1334 98.4625 13.1357C97.5159 13.1385 97.0611 13.5252 97.0628 14.0511C97.0628 14.6469 97.836 14.8027 99.2233 15.0972C100.801 15.4082 102.662 15.9466 102.667 17.9797C102.671 19.4523 101.359 21.1209 98.6081 21.1107C96.5329 21.1164 95.161 20.4006 94.3667 19.1032L94.3633 19.0975L96.5124 17.8558Z" fill="black"/>
<path id="Vector_9" d="M15.2213 15.6026C15.0416 14.0644 14.3075 12.6443 13.1563 11.6083C12.0052 10.5722 10.5159 9.99123 8.96727 9.97403H8.89677C8.64979 9.97414 8.40302 9.98837 8.15766 10.0167C7.28974 10.1166 6.45182 10.3947 5.69643 10.8337C5.67994 10.8433 5.66459 10.853 5.6481 10.8621L5.60603 10.8871C1.96506 13.0555 0.666504 18.0633 0.666504 21.1101L3.59849 19.4176C4.63211 21.3864 6.61463 22.6839 8.82514 22.7077H8.89564C9.14263 22.7074 9.3894 22.693 9.63475 22.6645C11.312 22.4687 12.8427 21.6148 13.8904 20.2904C14.938 18.9661 15.4168 17.2799 15.2213 15.6026Z" fill="black"/>
</g>
</g>
<defs>
<clipPath id="clip0_5001_1251">
<rect width="102" height="32" fill="white" transform="translate(0.666504)"/>
</clipPath>
</defs>
</svg>
